<svg width="182" height="46" viewBox="0 0 182 46" fill="none" xmlns="http://www.w3.org/2000/svg">
<path fill-rule="evenodd" clip-rule="evenodd" d="M0 0H6.47643V12.57C8.49676 10.3854 11.0792 9.29302 14.2237 9.29302C20.301 9.29302 23.3396 12.4559 23.3396 18.7817V34.9711H16.8632V18.7817C16.8632 15.9449 15.4538 14.5265 12.6352 14.5265C10.5334 14.5265 8.48046 15.3661 6.47643 17.0454V36.8611C6.47643 38.6877 7.97066 40.074 9.79613 40.074H16.9987L168.534 40.0735C173.194 40.0735 175.524 37.1721 175.524 33.2592C173.601 34.0744 171.532 34.482 169.316 34.482C161.691 34.482 157.878 30.3164 157.878 21.9853C157.878 13.5238 162.318 9.29302 171.198 9.29302C174.179 9.29302 177.78 9.64355 182 10.3446V33.0147C182 40.5143 177.495 45.2091 168.485 45.2091H21.6008V45.2242H7.90738C3.47409 45.2242 0 41.2973 0 36.8611V0ZM34.7283 22.0342C34.7283 27.3981 36.8057 30.08 40.9604 30.08C45.1151 30.08 47.1924 27.3981 47.1924 22.0342C47.1924 16.8008 45.1151 14.1841 40.9604 14.1841C36.8057 14.1841 34.7283 16.8008 34.7283 22.0342ZM28.2519 22.1321C28.2519 13.5238 32.4881 9.21965 40.9604 9.21965C49.4327 9.21965 53.6689 13.5238 53.6689 22.1321C53.6689 30.724 49.4327 35.02 40.9604 35.02C32.5207 35.02 28.2845 30.724 28.2519 22.1321ZM63.5668 9.29302H58.5567V34.9711H65.0332V17.1187C66.7113 15.3905 68.4954 14.5265 70.3854 14.5265C72.7642 14.5265 73.9536 15.9775 73.9536 18.8795V34.9711H80.43V17.1187C82.2059 15.3905 84.0552 14.5265 85.9777 14.5265C88.552 14.5265 89.8391 15.953 89.8391 18.8061V34.9711H96.3156V19.0507C96.3156 12.5456 93.3666 9.29302 87.4685 9.29302C84.601 9.29302 81.8556 10.4669 79.2324 12.8146C78.0431 10.4669 75.8354 9.29302 72.6094 9.29302C69.3834 9.29302 66.6217 10.5321 64.3244 13.0102L63.5668 9.29302ZM108.926 0V5.13562H102.45V0H108.926ZM108.926 34.9711H102.45V9.29302H108.926V34.9711ZM119.484 5.13562H114.694V28.0502C114.694 32.6641 116.845 34.9711 121.146 34.9711H126.914V29.8355H124.274C122.205 29.8355 121.17 28.6372 121.17 26.2406V14.4286H126.914V9.29302H120.462L119.484 5.13562ZM130.115 26.9742C130.115 21.8712 133.83 19.3197 141.26 19.3197C143.003 19.3197 144.746 19.4827 146.49 19.8088V17.8768C146.49 15.578 144.836 14.4286 141.528 14.4286C138.726 14.4286 135.614 14.8362 132.193 15.6514V10.5158C135.614 9.70061 138.726 9.29302 141.528 9.29302C149.153 9.29302 152.966 12.1135 152.966 17.7546V34.9711H149.202L146.905 32.6723C144.673 34.2048 142.213 34.9711 139.524 34.9711C133.252 34.9711 130.115 32.3055 130.115 26.9742ZM146.49 24.2108C144.86 23.8847 143.117 23.7217 141.26 23.7217C138.148 23.7217 136.592 24.7814 136.592 26.9008C136.592 29.1833 137.895 30.3246 140.502 30.3246C142.653 30.3246 144.649 29.6561 146.49 28.3193V24.2108ZM171.002 14.5265C172.957 14.5265 174.465 14.7221 175.524 15.1134V27.7812C173.748 28.6616 171.931 29.1018 170.074 29.1018C166.212 29.1018 164.281 26.7134 164.281 21.9364C164.281 16.9964 166.522 14.5265 171.002 14.5265Z" fill="#7471FF"/>
</svg>
