<svg width="24" height="24" viewBox="0 0 24 24" fill="none" xmlns="http://www.w3.org/2000/svg">
<path d="M11.9996 24C5.38279 24 0 18.6164 0 11.9996C0 5.38279 5.38279 0 11.9996 0C18.6164 0 23.9992 5.38279 23.9992 11.9996C24 18.6164 18.6164 24 11.9996 24ZM11.9996 1.37081C6.13851 1.37081 1.37081 6.13928 1.37081 11.9996C1.37081 17.8599 6.13851 22.6276 11.9996 22.6276C17.8599 22.6276 22.6276 17.8599 22.6276 11.9996C22.6276 6.13928 17.8599 1.37081 11.9996 1.37081Z" fill="#7471FF"/>
<path d="M16.731 12.6851H7.26821C6.88958 12.6851 6.58203 12.3791 6.58203 11.9997C6.58203 11.621 6.8888 11.3135 7.26821 11.3135H16.731C17.1096 11.3135 17.4164 11.621 17.4164 11.9997C17.4164 12.3791 17.1104 12.6851 16.731 12.6851Z" fill="#7471FF"/>
<path d="M11.9987 17.4164C11.62 17.4164 11.3125 17.1096 11.3125 16.731V7.26821C11.3125 6.88958 11.62 6.58203 11.9987 6.58203C12.3773 6.58203 12.6841 6.88958 12.6841 7.26821V16.731C12.6841 17.1104 12.3781 17.4164 11.9987 17.4164Z" fill="#7471FF"/>
</svg>
