<?xml version="1.0" encoding="UTF-8"?>
<svg width="51px" height="56px" viewBox="0 0 51 56" version="1.1" xmlns="http://www.w3.org/2000/svg" xmlns:xlink="http://www.w3.org/1999/xlink">
    <!-- Generator: Sketch 52.6 (67491) - http://www.bohemiancoding.com/sketch -->
    <title>Group 3</title>
    <desc>Created with Sketch.</desc>
    <g id="Page-1" stroke="none" stroke-width="1" fill="none" fill-rule="evenodd">
        <g id="Group-3" transform="translate(1.000000, 0.000000)">
            <g id="Vector-1" transform="translate(20.000000, 26.000000)">
                <path d="M20.0518,5.7502 C20.6688,5.7502 21.1711,5.2476 21.1718,4.62954 C21.1711,4.01219 20.6687,3.51088 20.0509,3.511 L8.25302,3.511 C7.77109,1.89161 6.27151,0.710938 4.49744,0.710938 C2.33258,0.710938 0.578125,2.46551 0.578125,4.62954 C0.578595,6.79404 2.33258,8.54862 4.49744,8.54862 C6.27151,8.54862 7.77097,7.36853 8.25243,5.7502 L20.0518,5.7502 Z" id="Path" fill="#7471FF"></path>
                <path d="M20.0518,5.7502 C20.6688,5.7502 21.1711,5.2476 21.1718,4.62954 C21.1711,4.01219 20.6687,3.51088 20.0509,3.511 L8.25302,3.511 C7.77109,1.89161 6.27151,0.710938 4.49744,0.710938 C2.33258,0.710938 0.578125,2.46551 0.578125,4.62954 C0.578595,6.79404 2.33258,8.54862 4.49744,8.54862 C6.27151,8.54862 7.77097,7.36853 8.25243,5.7502 L20.0518,5.7502 Z" id="Path" stroke="#FFFFFF"></path>
            </g>
            <g id="Vector" fill="#7471FF" fill-rule="nonzero" stroke="#FFFFFF" stroke-width="0.3">
                <path d="M43.465,15.1023 L43.5617,15.0056 L45.1941,13.3734 L45.2682,13.2994 L45.3633,13.3434 C45.7629,13.5286 46.2503,13.4588 46.5791,13.13 L46.5791,13.1299 L46.8695,12.8398 L43.465,15.1023 Z M43.465,15.1023 L43.5523,15.2075 L43.465,15.1023 Z M43.465,15.1023 L43.5523,15.2075 L43.465,15.1023 Z M43.5523,15.2075 C47.366,19.8037 49.5282,25.7879 49.1738,32.2077 C48.457,45.2066 37.7068,55.3872 24.7001,55.3872 C24.2448,55.3872 23.789,55.3752 23.3292,55.3496 C9.82288,54.6034 -0.558057,43.0102 0.187809,29.5041 L0.0380375,29.4959 L0.18781,29.5041 C0.863985,17.2504 10.4673,7.49881 22.4543,6.42679 L22.5909,6.41457 L22.5909,6.27739 L22.5909,4.77781 L22.5909,4.62781 L22.4409,4.62781 L22.223,4.62781 C21.1749,4.62781 20.3254,3.77875 20.3254,2.73053 L20.3254,2.0474 C20.3254,0.99958 21.1744,0.15 22.223,0.15 L27.1387,0.15 C28.1862,0.15 29.0365,0.999082 29.0365,2.04751 L29.0365,2.73065 C29.0365,3.77835 28.1878,4.62793 27.1387,4.62793 L26.92,4.62793 L26.77,4.62793 L26.77,4.77793 L26.77,6.28514 L26.77,6.42215 L26.9065,6.43452 C32.468,6.93885 37.4602,9.28071 41.3035,12.831 L41.4095,12.9289 L41.5114,12.8269 L43.0229,11.3143 L43.1297,11.2073 L43.0219,11.1013 L42.9581,11.0385 L43.5523,15.2075 Z M43.5523,15.2075 L42.9581,11.0385 L43.5523,15.2075 Z M42.9581,11.0385 C42.958,11.0384 42.9579,11.0383 42.9578,11.0382 C42.5357,10.6156 42.5358,9.9308 42.9581,9.50852 L42.9582,9.50841 L43.2478,9.21824 L43.2479,9.21818 L42.9581,11.0385 Z M42.9581,11.0385 L43.2479,9.21818 L42.9581,11.0385 Z M43.2479,9.21818 C43.6704,8.79544 44.3552,8.79541 44.7781,9.21828 L46.8696,11.3097 C46.8696,11.3097 46.8696,11.3097 46.8697,11.3097 C47.2911,11.7316 47.2912,12.4171 46.8697,12.8397 L43.2479,9.21818 Z M23.4942,52.3625 L23.4943,52.3625 C35.443,53.0158 45.5366,43.8549 46.1884,32.0417 C46.8428,20.184 37.7271,10.0033 25.8686,9.34864 L25.8684,9.34863 C25.4628,9.32677 25.0631,9.31541 24.662,9.31541 C13.2418,9.31541 3.80397,18.2556 3.17413,29.6675 L3.3239,29.6758 L3.17413,29.6676 C2.52027,41.5277 11.6351,51.7074 23.4942,52.3625 Z" id="Shape"></path>
            </g>
        </g>
    </g>
</svg>