<svg width="71" height="71" viewBox="0 0 71 71" fill="none" xmlns="http://www.w3.org/2000/svg">
<ellipse cx="35.002" cy="35.0018" rx="25" ry="24.5" transform="rotate(45 35.002 35.0018)" fill="#7471FF"/>
<path d="M31.3539 42.146C30.3434 43.1637 28.6879 43.1805 27.6562 42.185C27.1333 41.6795 26.8704 41.0115 26.8704 40.3429C26.8704 39.6918 27.119 39.0413 27.6174 38.5392L31.2892 34.8423L27.6174 31.1448C27.119 30.6433 26.8704 29.9922 26.8704 29.3417C26.8704 28.6724 27.1333 28.0045 27.6562 27.4996C28.6879 26.5034 30.3441 26.5209 31.3539 27.5379L34.9488 31.1576L38.5437 27.5379C39.5542 26.5209 41.2097 26.5034 42.2413 27.4996C43.2737 28.4952 43.2907 30.1278 42.2808 31.1448L38.6084 34.8423L42.2808 38.5392C43.2914 39.5568 43.2737 41.1888 42.2413 42.185C41.2097 43.1805 39.5542 43.1637 38.5437 42.146L34.9488 38.5271L31.3539 42.146Z" fill="white"/>
</svg>
