<svg width="68" height="68" viewBox="0 0 68 68" fill="none" xmlns="http://www.w3.org/2000/svg">
<path d="M58.0404 9.9596C51.6153 3.53451 43.0867 0 34 0C24.9133 0 16.3847 3.53451 9.9596 9.9596C3.53451 16.3847 0 24.9133 0 34C0 43.0867 3.53451 51.6153 9.9596 58.0404C16.3847 64.4655 24.9133 68 34 68C43.0867 68 51.6153 64.4655 58.0404 58.0404C64.4655 51.6153 68 43.0867 68 34C68 24.9133 64.4655 16.3847 58.0404 9.9596ZM55.3072 55.3072C49.612 61.0025 42.0421 64.1364 34 64.1364C25.9579 64.1364 18.388 61.0025 12.6928 55.3072C0.944444 43.5589 0.944444 24.4411 12.6928 12.6928C18.388 6.99747 25.9579 3.86364 34 3.86364C42.0421 3.86364 49.612 6.99747 55.3072 12.6928C67.0556 24.4411 67.0556 43.5589 55.3072 55.3072Z" fill="#7471FF"/>
<path d="M48.9819 19.0163C48.2235 18.2579 47.0072 18.2579 46.2488 19.0163L33.9996 31.2655L21.7505 19.0163C20.992 18.2579 19.7757 18.2579 19.0173 19.0163C18.2589 19.7747 18.2589 20.9911 19.0173 21.7495L31.2665 33.9986L19.0173 46.2478C18.2589 47.0062 18.2589 48.2225 19.0173 48.981C19.3893 49.353 19.8902 49.5533 20.3767 49.5533C20.8633 49.5533 21.3641 49.3673 21.7362 48.981L33.9853 36.7318L46.2345 48.981C46.6065 49.353 47.1074 49.5533 47.5939 49.5533C48.0947 49.5533 48.5813 49.3673 48.9533 48.981C49.7117 48.2225 49.7117 47.0062 48.9533 46.2478L36.7328 33.9986L48.9819 21.7495C49.7404 20.9911 49.7404 19.7747 48.9819 19.0163Z" fill="#7471FF"/>
</svg>
