<svg width="21" height="21" viewBox="0 0 21 21" fill="none" xmlns="http://www.w3.org/2000/svg">
<path d="M19.9932 15.1725C21.316 16.486 21.3378 18.6377 20.0439 19.9786C19.3868 20.6584 18.5187 21 17.6497 21C16.8033 21 15.9578 20.6769 15.3052 20.029L10.5002 15.2566L5.69437 20.029C5.0426 20.6769 4.19625 21 3.35078 21C2.48088 21 1.61272 20.6584 0.95658 19.9786C-0.338241 18.6377 -0.315556 16.4851 1.00631 15.1725L5.71095 10.5001L1.00631 5.82767C-0.315556 4.51419 -0.338241 2.36252 0.95658 1.0216C2.25053 -0.32021 4.3725 -0.342337 5.69437 0.970261L10.5002 5.74359L15.3052 0.970261C16.6279 -0.343222 18.749 -0.32021 20.0439 1.0216C21.3378 2.36252 21.316 4.51419 19.9932 5.82767L15.2895 10.5001L19.9932 15.1725Z" fill="#7471FF"/>
</svg>
