<?xml version="1.0" encoding="UTF-8"?>
<svg width="1030px" height="782px" viewBox="0 0 1030 782" version="1.1" xmlns="http://www.w3.org/2000/svg" xmlns:xlink="http://www.w3.org/1999/xlink">
    <!-- Generator: Sketch 52.6 (67491) - http://www.bohemiancoding.com/sketch -->
    <title>Group 2</title>
    <desc>Created with Sketch.</desc>
    <g id="Page-1" stroke="none" stroke-width="1" fill="none" fill-rule="evenodd">
        <g id="Group-2" fill="#7471FF">
            <g id="Vector-1" fill-rule="nonzero">
                <path d="M816.692618,309.852571 C814.538982,138.596277 686.1242,0 528.586636,0 C458.505436,0 390.993618,27.8022327 338.482345,78.2796218 C291.617345,123.327372 259.56,183.529713 246.862909,249.627196 C245.935909,249.615822 245.0164,249.607291 244.098764,249.607291 C109.503607,249.610135 0,369.022956 0,515.804356 C0,662.585756 109.503607,782 244.098764,782 L813.507109,782 C932.882236,782 1029.99813,676.093029 1030,545.915622 C1030,416.896996 934.605145,311.716575 816.692618,309.852571 Z M813.507109,734.091836 L244.098764,734.091836 C133.726773,734.091836 43.9317473,636.168375 43.9317473,515.804356 C43.9317473,395.44176 133.726773,297.518298 244.098764,297.518298 C249.982873,297.518298 256.200327,297.860956 263.101327,298.571865 C274.815236,299.800316 285.338091,290.682196 286.928036,277.958345 C294.836564,214.732935 323.463073,156.580571 367.532091,114.216503 C412.013109,71.4547524 469.208073,47.9063153 528.582891,47.9063153 C663.233855,47.9063153 772.782782,167.367905 772.782782,314.210444 C772.782782,319.498185 772.421345,324.948015 772.041182,330.717753 L771.880127,333.171811 C771.425055,340.218342 773.844618,347.126956 778.492727,352.047869 C783.140836,356.968782 789.547436,359.392982 795.991491,358.694869 C801.828782,358.055051 807.722255,357.729455 813.505236,357.729455 C908.652891,357.729455 986.063945,442.147065 986.063945,545.909935 C986.063945,649.674225 908.654764,734.091836 813.507109,734.091836 Z" id="Shape"></path>
            </g>
            <g id="Vector" transform="translate(342.000000, 102.000000)">
                <path d="M191.7225,13.053228 C99.759375,13.053228 21.03825,88.0736925 8.6089125,187.559925 C6.96736875,200.698425 15.3945938,212.80095 27.427125,214.592175 C28.4341875,214.74465 29.4373125,214.817325 30.4261875,214.817325 C41.2501875,214.817325 50.6865,206.087775 52.189125,194.049375 C61.661625,118.240087 121.647188,61.068945 191.71875,61.068945 C203.866875,61.068945 213.7125,50.3171775 213.7125,37.061115 C213.714375,23.8027725 203.86875,13.053228 191.7225,13.053228 Z" id="Path"></path>
            </g>
        </g>
    </g>
</svg>