<?xml version="1.0" encoding="UTF-8"?>
<svg width="50px" height="50px" viewBox="0 0 50 50" version="1.1" xmlns="http://www.w3.org/2000/svg" xmlns:xlink="http://www.w3.org/1999/xlink">
    <!-- Generator: Sketch 52.6 (67491) - http://www.bohemiancoding.com/sketch -->
    <title>Group 2</title>
    <desc>Created with Sketch.</desc>
    <g id="Page-1" stroke="none" stroke-width="1" fill="none" fill-rule="evenodd">
        <g id="Ellipse" transform="translate(-10.000000, -10.000000)">
            <g id="Group-2">
                <ellipse id="Oval" fill="#7471FF" transform="translate(35.002000, 35.001800) rotate(45.000000) translate(-35.002000, -35.001800) " cx="35.002" cy="35.0018" rx="25" ry="24.5"></ellipse>
                <g id="Vector-1" transform="translate(30.000000, 34.000000)" fill="#FFFFFF">
                    <path d="M8.11773,10.065 L5.89691,12.2865 L5.89691,1.26083 C5.89691,0.776975 5.5047,0.384766 5.02106,0.384766 C4.53721,0.384766 4.145,0.776975 4.145,1.26083 L4.145,12.2865 L1.92419,10.065 C1.58816,9.71683 1.03339,9.70722 0.685396,10.0435 C0.337406,10.3795 0.327793,10.9341 0.663821,11.282 C0.671084,11.2895 0.678133,11.2966 0.685396,11.3036 L4.40071,15.0198 C4.48188,15.1007 4.57801,15.165 4.68376,15.2091 C4.8993,15.3003 5.14262,15.3003 5.35837,15.2091 C5.46412,15.165 5.56025,15.1007 5.64121,15.0198 L9.35652,11.3036 C9.70451,10.9676 9.71412,10.413 9.3781,10.065 C9.04185,9.71705 8.48729,9.70743 8.1393,10.0435 C8.13204,10.0505 8.12478,10.0576 8.11773,10.065 Z" id="Path"></path>
                </g>
                <g id="Vector" transform="translate(21.000000, 21.000000)" fill="#FFFFFF">
                    <path d="M22.6128,7.04972 C21.6671,2.30475 17.0539,-0.775036 12.3089,0.170668 C8.83843,0.862375 6.12479,3.5743 5.43095,7.04438 C2.06662,7.4321 -0.346665,10.4736 0.0408455,13.8382 C0.397594,16.9346 3.02023,19.2708 6.13718,19.2687 L10.5173,19.2687 C11.0011,19.2687 11.3933,18.8765 11.3933,18.3926 C11.3933,17.9088 11.0011,17.5165 10.5173,17.5165 L6.13718,17.5165 C3.71792,17.5022 1.76862,15.5296 1.78272,13.1106 C1.79703,10.6913 3.76961,8.74182 6.18888,8.75613 C6.63535,8.75613 7.01047,8.42032 7.0596,7.97641 C7.50436,4.13164 10.9819,1.37528 14.8269,1.82004 C18.0594,2.19388 20.6094,4.74388 20.9833,7.97641 C21.0567,8.42822 21.4481,8.75912 21.9057,8.75613 C24.3249,8.75613 26.286,10.7172 26.286,13.1364 C26.286,15.5555 24.3249,17.5165 21.9057,17.5165 L17.5256,17.5165 C17.0417,17.5165 16.6495,17.9088 16.6495,18.3926 C16.6495,18.8765 17.0417,19.2687 17.5256,19.2687 L21.9059,19.2687 C25.2924,19.2475 28.0208,16.485 27.9999,13.0984 C27.9807,10.0144 25.674,7.42441 22.6128,7.04972 Z" id="Path"></path>
                </g>
            </g>
        </g>
    </g>
</svg>