<svg width="13" height="13" viewBox="0 0 13 13" fill="none" xmlns="http://www.w3.org/2000/svg">
<path d="M10.7208 0.263672H2.2792C1.02243 0.263672 0 1.28614 0 2.54291V7.74971C0 9.00649 1.02243 10.0289 2.2792 10.0289L7.65605 10.029L10.2299 12.6028C10.3172 12.6901 10.4337 12.7364 10.5524 12.7364C10.6111 12.7364 10.6703 12.725 10.7267 12.7016C10.897 12.6311 11.0081 12.4649 11.0081 12.2805V10.0109C12.1298 9.86923 13 8.90919 13 7.74971V2.54291C13 1.28614 11.9776 0.263672 10.7208 0.263672ZM12.0883 7.74975C12.0883 8.50382 11.4749 9.11727 10.7208 9.11727H10.5523C10.3005 9.11727 10.0964 9.32142 10.0964 9.57311V11.18L8.16721 9.25078C8.08173 9.16526 7.96584 9.11727 7.84488 9.11727H2.2792C1.52513 9.11727 0.911682 8.50382 0.911682 7.74975V2.54295C0.911682 1.78888 1.52513 1.17543 2.2792 1.17543H10.7208C11.4749 1.17543 12.0883 1.78888 12.0883 2.54295V7.74975Z" fill="white"/>
<path d="M9.85503 3.49146H3.14505C2.89332 3.49146 2.68921 3.69553 2.68921 3.9473C2.68921 4.19903 2.89332 4.40314 3.14505 4.40314H9.85503C10.1068 4.40314 10.3109 4.19903 10.3109 3.9473C10.3109 3.69553 10.1068 3.49146 9.85503 3.49146Z" fill="white"/>
<path d="M9.85503 6.04419H3.14505C2.89332 6.04419 2.68921 6.24826 2.68921 6.50003C2.68921 6.7518 2.89332 6.95587 3.14505 6.95587H9.85503C10.1068 6.95587 10.3109 6.75177 10.3109 6.50003C10.3109 6.2483 10.1068 6.04419 9.85503 6.04419Z" fill="white"/>
</svg>
