<svg width="30" height="30" viewBox="0 0 30 30" fill="none" xmlns="http://www.w3.org/2000/svg">
<ellipse cx="14.5017" cy="14.5018" rx="10.3579" ry="10.1507" transform="rotate(45 14.5017 14.5018)" fill="#7471FF"/>
<path d="M18.0695 11.6215C17.6777 9.65558 15.7664 8.37957 13.8005 8.77139C12.3626 9.05798 11.2383 10.1816 10.9508 11.6193C9.55692 11.7799 8.55706 13.0401 8.71761 14.4341C8.86541 15.717 9.95201 16.6849 11.2434 16.684H13.0582C13.2586 16.684 13.4211 16.5215 13.4211 16.321C13.4211 16.1206 13.2586 15.9581 13.0582 15.9581H11.2434C10.2411 15.9521 9.43345 15.1349 9.43929 14.1326C9.44522 13.1303 10.2625 12.3226 11.2648 12.3285C11.4498 12.3285 11.6052 12.1894 11.6256 12.0054C11.8099 10.4125 13.2507 9.27048 14.8437 9.45476C16.183 9.60964 17.2395 10.6661 17.3944 12.0054C17.4248 12.1926 17.587 12.3297 17.7765 12.3285C18.7789 12.3285 19.5914 13.141 19.5914 14.1433C19.5914 15.1456 18.7789 15.9581 17.7765 15.9581H15.9618C15.7613 15.9581 15.5988 16.1206 15.5988 16.321C15.5988 16.5215 15.7613 16.684 15.9618 16.684H17.7766C19.1797 16.6752 20.3101 15.5307 20.3015 14.1276C20.2935 12.8498 19.3378 11.7767 18.0695 11.6215Z" fill="white"/>
<path d="M15.7929 17.4274L14.8728 18.3478V13.7797C14.8728 13.5792 14.7103 13.4167 14.5099 13.4167C14.3094 13.4167 14.147 13.5792 14.147 13.7797V18.3478L13.2268 17.4274C13.0876 17.2832 12.8578 17.2792 12.7136 17.4185C12.5694 17.5577 12.5654 17.7875 12.7046 17.9317C12.7077 17.9348 12.7106 17.9377 12.7136 17.9406L14.2529 19.4803C14.2865 19.5138 14.3264 19.5404 14.3702 19.5587C14.4595 19.5965 14.5603 19.5965 14.6497 19.5587C14.6935 19.5404 14.7333 19.5138 14.7669 19.4803L16.3062 17.9406C16.4503 17.8014 16.4543 17.5716 16.3151 17.4274C16.1758 17.2833 15.946 17.2793 15.8019 17.4185C15.7988 17.4214 15.7958 17.4243 15.7929 17.4274Z" fill="white"/>
</svg>
