<svg width="47" height="44" viewBox="0 0 47 44" fill="none" xmlns="http://www.w3.org/2000/svg">
<path d="M44.7107 21.3321C43.9945 21.3321 43.4215 21.9051 43.4215 22.6214V34.3489C43.4215 37.5386 40.8239 40.1267 37.6437 40.1267H9.35632C6.1666 40.1267 3.57852 37.5291 3.57852 34.3489V22.4304C3.57852 21.7141 3.00552 21.1411 2.28926 21.1411C1.57301 21.1411 1 21.7141 1 22.4304V34.3489C1 38.9616 4.75318 42.7052 9.35632 42.7052H37.6437C42.2564 42.7052 46 38.952 46 34.3489V22.6214C46 21.9147 45.427 21.3321 44.7107 21.3321Z" fill="#7471FF" stroke="#7471FF" stroke-width="2"/>
<path d="M30.7863 22.4496L24.7889 28.447L24.7889 2.28934C24.7889 1.57308 24.2159 1.00008 23.4996 1.00008C22.7834 1.00008 22.2104 1.57308 22.2104 2.28934L22.2104 28.447L16.2129 22.4496C15.9646 22.2013 15.6304 22.0676 15.3057 22.0676C14.9714 22.0676 14.6467 22.1917 14.3984 22.4496C13.8922 22.9557 13.8922 23.7675 14.3984 24.2736L22.5924 32.4676C22.8311 32.7064 23.1654 32.8496 23.4996 32.8496C23.8434 32.8496 24.1681 32.7159 24.4069 32.4676L32.6009 24.2736C33.107 23.7675 33.107 22.9557 32.6009 22.4496C32.1042 21.953 31.2829 21.953 30.7863 22.4496Z" fill="#7471FF" stroke="#7471FF" stroke-width="2"/>
</svg>
