<svg width="25" height="16" viewBox="0 0 25 16" fill="none" xmlns="http://www.w3.org/2000/svg">
<path d="M2 0.5C1.17157 0.5 0.5 1.17157 0.5 2C0.5 2.82843 1.17157 3.5 2 3.5V0.5ZM23 3.5C23.8284 3.5 24.5 2.82843 24.5 2C24.5 1.17157 23.8284 0.5 23 0.5V3.5ZM2 3.5H23V0.5H2V3.5Z" fill="#7471FF"/>
<path d="M2 6.5C1.17157 6.5 0.5 7.17157 0.5 8C0.5 8.82843 1.17157 9.5 2 9.5V6.5ZM23 9.5C23.8284 9.5 24.5 8.82843 24.5 8C24.5 7.17157 23.8284 6.5 23 6.5V9.5ZM2 9.5H23V6.5H2V9.5Z" fill="#7471FF"/>
<path d="M2 12.5C1.17157 12.5 0.5 13.1716 0.5 14C0.5 14.8284 1.17157 15.5 2 15.5V12.5ZM23 15.5C23.8284 15.5 24.5 14.8284 24.5 14C24.5 13.1716 23.8284 12.5 23 12.5V15.5ZM2 15.5H23V12.5H2V15.5Z" fill="#7471FF"/>
</svg>
