<?xml version="1.0" encoding="UTF-8"?>
<svg width="55px" height="57px" viewBox="0 0 55 57" version="1.1" xmlns="http://www.w3.org/2000/svg" xmlns:xlink="http://www.w3.org/1999/xlink">
    <!-- Generator: Sketch 52.6 (67491) - http://www.bohemiancoding.com/sketch -->
    <title>Group 4</title>
    <desc>Created with Sketch.</desc>
    <g id="Page-1" stroke="none" stroke-width="1" fill="none" fill-rule="evenodd">
        <g id="Group-4" transform="translate(1.000000, 1.000000)" fill="#7471FF" stroke="#7471FF" stroke-width="0.2">
            <g id="Vector-1" transform="translate(9.000000, 42.000000)">
                <path d="M35.3337,0.552344 L1.94369,0.552344 C1.26762,0.552344 0.726172,1.09379 0.726172,1.76986 C0.726172,2.44593 1.26762,2.98738 1.94369,2.98738 L35.3337,2.98738 C36.0098,2.98738 36.5513,2.44593 36.5513,1.76986 C36.5513,1.09379 36.0098,0.552344 35.3337,0.552344 Z" id="Path"></path>
            </g>
            <g id="Vector-2" transform="translate(15.000000, 34.000000)">
                <path d="M21.9897,0.204687 L1.28744,0.204687 C0.61137,0.204687 0.06992,0.746132 0.06992,1.4222 C0.06992,2.09827 0.61137,2.63972 1.28744,2.63972 L21.9897,2.63972 C22.6658,2.63972 23.2072,2.09827 23.2072,1.4222 C23.2072,0.746132 22.6658,0.204687 21.9897,0.204687 Z" id="Path"></path>
            </g>
            <g id="Vector-3" transform="translate(15.000000, 26.000000)">
                <path d="M21.9897,0.858984 L1.28744,0.858984 C0.61137,0.858984 0.06992,1.40043 0.06992,2.0765 C0.06992,2.75257 0.61137,3.29402 1.28744,3.29402 L21.9897,3.29402 C22.6658,3.29402 23.2072,2.75257 23.2072,2.0765 C23.2072,1.41238 22.6664,0.858984 21.9897,0.858984 Z" id="Path"></path>
            </g>
            <g id="Vector" fill-rule="nonzero">
                <path d="M0.18325,14.5765 C0.16385,14.6056 0.13671,14.6462 0.12062,14.6902 C0.1096,14.7123 0.096728,14.739 0.084148,14.7767 L0.083868,14.7766 L0.082002,14.7841 C0.076816,14.8048 0.071609,14.8231 0.065932,14.8429 L0.065788,14.8434 C0.06091,14.8605 0.055681,14.8788 0.050394,14.8994 C0.043254,14.9163 0.039447,14.9316 0.037275,14.9404 L0.03685,14.9421 C0.03533,14.9482 0.03459,14.951 0.03383,14.9535 C0.033411,14.9548 0.033159,14.9554 0.033093,14.9556 L0.026409,14.969 L0.023937,14.9838 L0.023355,14.9873 C0.012446,15.0527 0,15.1274 0,15.2034 L0,54.531 C0,55.2077 0.55339,55.7485 1.21752,55.7485 L52.2508,55.7485 C52.9268,55.7485 53.4683,55.207 53.4683,54.531 L53.4683,15.2034 C53.4683,15.1284 53.4562,15.0547 53.4454,14.9899 C53.4429,14.951 53.427,14.9165 53.4173,14.8972 C53.4122,14.8773 53.4071,14.8595 53.4024,14.8429 C53.3984,14.8292 53.3948,14.8163 53.3912,14.8028 C53.3895,14.7967 53.3879,14.7905 53.3863,14.7841 L53.3836,14.7734 L53.3787,14.7636 C53.3753,14.7568 53.3713,14.747 53.3652,14.7317 C53.36,14.7187 53.3527,14.7004 53.3449,14.6846 L53.3456,14.6842 L53.3386,14.6738 C53.3313,14.6629 53.3254,14.6514 53.3166,14.6338 L53.3158,14.6322 C53.3083,14.6172 53.2984,14.5974 53.2852,14.5769 C53.2759,14.5597 53.2645,14.5446 53.2578,14.5357 L53.2564,14.5339 C53.2519,14.5279 53.249,14.5239 53.2465,14.5203 C53.2458,14.5194 53.2453,14.5186 53.2449,14.518 C53.2437,14.5161 53.2433,14.5153 53.2433,14.5153 L53.236,14.5008 L53.2304,14.4951 C53.2269,14.4882 53.2196,14.4748 53.2072,14.461 L42.1814,0.46706 L42.1812,0.46688 C41.9483,0.17265 41.6036,0 41.2224,0 L12.2459,0 C11.8765,0 11.5203,0.17221 11.2871,0.46688 L11.2869,0.46706 L0.26108,14.461 C0.24868,14.4748 0.24143,14.4882 0.23792,14.4951 L0.23229,14.5008 L0.22503,14.5153 C0.22504,14.5152 0.2243,14.5167 0.22184,14.5203 C0.21933,14.5239 0.21636,14.5279 0.2119,14.5339 L0.21051,14.5357 C0.20389,14.5445 0.19263,14.5595 0.18332,14.5764 L0.18325,14.5765 Z M27.9573,2.42375 L40.632,2.42375 L49.7419,13.9859 L27.9573,13.9859 L27.9573,2.42375 Z M3.72654,13.9859 L12.8475,2.42375 L25.5223,2.42375 L25.5223,13.9859 L3.72654,13.9859 Z M2.43503,16.4209 L51.0333,16.4209 L51.0333,53.3135 L2.43503,53.3135 L2.43503,16.4209 Z" id="Shape"></path>
            </g>
        </g>
    </g>
</svg>