<svg width="30" height="30" viewBox="0 0 30 30" fill="none" xmlns="http://www.w3.org/2000/svg">
<ellipse cx="14.5017" cy="14.5018" rx="10.3579" ry="10.1507" transform="rotate(45 14.5017 14.5018)" fill="#7471FF"/>
<path d="M12.3095 16.1483L9.76644 18.6917V17.0582C9.76644 16.8467 9.59496 16.6751 9.38334 16.6751C9.17172 16.6751 9.00024 16.8467 9.00024 17.0582V19.6166C9.00024 19.8282 9.17172 19.9997 9.38334 19.9997H11.9416C12.1532 19.9997 12.3247 19.8282 12.3247 19.6166C12.3247 19.405 12.1532 19.2335 11.9416 19.2335H10.3082L12.8513 16.6901C13.001 16.5405 13.001 16.2979 12.8513 16.1483C12.7018 15.9987 12.4592 15.9987 12.3095 16.1483Z" fill="white"/>
<path d="M19.6167 9H17.0583C16.8467 9 16.6752 9.17153 16.6752 9.3831C16.6752 9.59467 16.8467 9.76619 17.0583 9.76619H18.6918L16.2248 12.2334C16.0751 12.383 16.0751 12.6256 16.2248 12.7752C16.2996 12.85 16.3977 12.8874 16.4957 12.8874C16.5937 12.8874 16.6918 12.8499 16.7666 12.7751L19.2336 10.3079V11.9415C19.2336 12.153 19.4051 12.3246 19.6167 12.3246C19.8284 12.3246 19.9998 12.153 19.9998 11.9415V9.3831C19.9998 9.17147 19.8283 9 19.6167 9Z" fill="white"/>
</svg>
