<svg width="73" height="65" viewBox="0 0 73 65" fill="none" xmlns="http://www.w3.org/2000/svg">
<path d="M5.4078 0.0550537C3.91495 0.0550537 2.64049 0.584188 1.58415 1.6392C0.528395 2.69555 0 3.97015 0 5.46285C0 6.44847 0.246367 7.34989 0.739545 8.16638C1.23198 8.98316 1.88704 9.63082 2.70353 10.1098V63.5929C2.70353 63.9874 2.83004 64.3115 3.08381 64.5646C3.33713 64.8183 3.66074 64.9443 4.05551 64.9443H6.75904C7.15353 64.9443 7.47758 64.8181 7.73075 64.5646C7.98422 64.3115 8.11073 63.9874 8.11073 63.5929V10.1098C8.92752 9.63082 9.58228 8.98316 10.075 8.16638C10.568 7.34989 10.8143 6.44802 10.8143 5.46285C10.8143 3.97059 10.2865 2.69614 9.23085 1.6392C8.17466 0.583744 6.90006 0.0550537 5.4078 0.0550537Z" fill="#7471FF"/>
<path d="M71.6921 5.84333C70.8187 5.33669 69.9461 5.30887 69.0716 5.75928C68.819 5.90059 68.3819 6.13956 67.7627 6.47752C62.4681 9.63176 58.1032 11.2091 54.6669 11.2091C53.2303 11.2091 51.9764 10.9414 50.9066 10.4065C47.7529 8.85759 44.8094 7.64632 42.0775 6.77302C39.3455 5.90059 36.4024 5.46379 33.2484 5.46379C31.1925 5.46379 29.0095 5.73147 26.7005 6.26667C24.391 6.80157 22.2431 7.49865 20.2576 8.35716C18.2723 9.21627 16.6664 9.94841 15.4419 10.554C14.2159 11.1597 13.1106 11.7576 12.1253 12.3493C11.2521 12.9125 10.8153 13.687 10.8153 14.6729V46.0188C10.8153 47.0608 11.266 47.8497 12.1672 48.3845C12.6177 48.6103 13.0684 48.7222 13.5192 48.7222C14.0258 48.7222 14.4909 48.5957 14.9129 48.3429C17.5883 46.7094 20.8057 45.2723 24.5656 44.0332C28.3259 42.7941 31.6423 42.1744 34.515 42.1744C36.1478 42.1744 37.754 42.3714 39.3309 42.7659C40.9076 43.1599 42.1898 43.569 43.1751 43.9907C44.16 44.4135 45.554 45.0891 47.3573 46.0188L48.5401 46.6102C50.5109 47.5966 52.7359 48.0897 55.2136 48.0897C59.4671 48.0897 64.6631 46.4562 70.8027 43.1892C71.0002 43.0767 71.2392 42.9502 71.5208 42.8089C72.5063 42.302 72.9999 41.4998 72.9999 40.4012V8.16688C73.0006 7.18126 72.564 6.40709 71.6921 5.84333ZM67.5925 38.7962C62.7202 41.3866 58.5943 42.682 55.2148 42.6825C53.6097 42.6825 52.1878 42.3726 50.9476 41.7533L49.7653 41.162C48.2158 40.4013 47.0536 39.8454 46.2799 39.4929C45.5058 39.1405 44.4205 38.7041 43.0276 38.1834C41.633 37.6624 40.2532 37.2964 38.8876 37.0851C37.522 36.8739 36.0642 36.7685 34.5148 36.7685C29.2196 36.7685 23.123 38.3597 16.2224 41.5427V16.2368C22.7004 12.6595 28.3756 10.8711 33.2476 10.8711C35.8952 10.8711 38.4015 11.2585 40.7666 12.0331C43.1319 12.8073 45.7236 13.885 48.5404 15.2645C50.3137 16.1657 52.3559 16.6165 54.6651 16.6165C58.5236 16.6165 62.8328 15.3346 67.5927 12.7721L67.5925 38.7962Z" fill="#7471FF"/>
</svg>
