<svg width="19" height="19" viewBox="0 0 19 19" fill="none" xmlns="http://www.w3.org/2000/svg">
<path d="M9.49994 4.19141C8.92128 4.19141 8.45215 4.66054 8.45215 5.2392V9.57008C8.45215 10.1487 8.92128 10.6179 9.49994 10.6179C10.0786 10.6179 10.5477 10.1487 10.5477 9.57008V5.2392C10.5477 4.66054 10.0786 4.19141 9.49994 4.19141Z" fill="white"/>
<path d="M9.5 0C4.29812 0 0 4.34255 0 9.56985C0 14.7696 4.26166 19 9.5 19C14.6998 19 18.9301 14.7696 18.9301 9.56985C18.9301 4.37175 14.7286 0 9.5 0ZM9.5 16.9044C5.41717 16.9044 2.09559 13.6141 2.09559 9.56985C2.09559 5.51838 5.48639 2.09559 9.5 2.09559C13.5443 2.09559 16.8346 5.44853 16.8346 9.56985C16.8346 13.6141 13.5443 16.9044 9.5 16.9044Z" fill="white"/>
<path d="M9.48991 12.7148C8.90636 12.7148 8.43164 13.1896 8.43164 13.7731C8.43164 14.3567 8.90643 14.8314 9.48991 14.8314C10.0735 14.8314 10.5482 14.3567 10.5482 13.7731C10.5482 13.1896 10.0735 12.7148 9.48991 12.7148Z" fill="white"/>
</svg>
