<svg width="53" height="54" xmlns="http://www.w3.org/2000/svg">
 <g>
  <title>background</title>
  <rect fill="none" id="canvas_background" height="56" width="55" y="-1" x="-1"/>
 </g>
 <g>
  <title>Layer 1</title>
  <g id="svg_5">
   <path id="svg_1" stroke-width="0.5" stroke="white" fill="#7471FF" d="m6.652375,49.212059l19.965909,0c1.111856,0 2.010405,0.898445 2.010405,2.010387c0,1.111938 -0.898548,2.010384 -2.010405,2.010384l-19.965909,0c-3.554395,0 -6.447246,-2.892891 -6.447246,-6.447289l0,-39.931526c0,-3.554401 2.89285,-6.44735 6.447246,-6.44735l19.965909,0c1.111856,0 2.010405,0.898665 2.010405,2.010605c0,1.111905 -0.898548,2.0104 -2.010405,2.0104l-19.965909,0c-1.339332,0 -2.426357,1.086897 -2.426357,2.426345l0,39.931686c0,1.339291 1.086916,2.426357 2.426357,2.426357z"/>
  </g>
  <g id="svg_8">
   <path id="svg_3" stroke-width="0.5" stroke="white" fill="#7471FF" d="m38.19846,10.471931l-0.000259,-0.000216c-0.803711,-0.795527 -2.104546,-0.785812 -2.901054,0.020948c-0.796154,0.806351 -0.787918,2.104988 0.020546,2.901119l0.000172,0.000166l9.837692,9.708647l0.368145,0.36331l-0.517239,0l-26.361576,0c-1.134827,0 -2.051836,0.917074 -2.051836,2.051832c0,1.13485 0.917025,2.052008 2.051836,2.052008l26.361576,0l0.517239,0l-0.368145,0.363308l-9.837692,9.708639l-0.000172,0.000164c-0.808125,0.795822 -0.814674,2.094532 -0.020546,2.901138c0.402534,0.406605 0.931755,0.61158 1.460976,0.61158c0.521748,0 1.042385,-0.197071 1.440079,-0.590782l0.000259,-0.000175l13.76585,-13.584732l0.000244,-0.000257m-13.766094,-16.506697l13.766094,16.506697m-13.766094,-16.506697l13.76585,13.584751m-13.76585,-13.584751l13.76585,13.584751m0.000244,2.921946c0.390144,-0.386068 0.611504,-0.911549 0.611504,-1.460972c0,-0.549425 -0.219311,-1.072611 -0.611748,-1.460974m0.000244,2.921946l-0.000244,-2.921946"/>
  </g>
 </g>
</svg>