<svg width="150" height="150" viewBox="0 0 150 150" fill="none" xmlns="http://www.w3.org/2000/svg">
<path fill-rule="evenodd" clip-rule="evenodd" d="M32.1437 16.0715C23.2683 16.0715 16.0723 23.2669 16.0723 32.143V117.857C16.0723 126.733 23.2683 133.929 32.1437 133.929H117.858C126.733 133.929 133.929 126.733 133.929 117.857V32.143C133.929 23.2669 126.733 16.0715 117.858 16.0715H32.1437ZM117.858 26.7858H32.1437C29.1852 26.7858 26.7866 29.1843 26.7866 32.143V111.607L49.9677 84.5626C51.9387 82.2628 55.4226 82.0533 57.6552 84.0997L85.7151 109.822L77.6794 91.0715L100.929 65.4966C102.893 63.3368 106.224 63.1464 108.421 65.0686L123.215 78.0135V32.143C123.215 29.1843 120.816 26.7858 117.858 26.7858ZM64.2861 50.8929C64.2861 58.2896 58.2907 64.2858 50.8932 64.2858C43.4957 64.2858 37.5003 58.2896 37.5003 50.8929C37.5003 43.4962 43.4957 37.5 50.8932 37.5C58.2907 37.5 64.2861 43.4962 64.2861 50.8929Z" fill="#969696"/>
</svg>
