<?xml version="1.0" encoding="UTF-8"?>
<svg width="1049px" height="712px" viewBox="0 0 1049 712" version="1.1" xmlns="http://www.w3.org/2000/svg" xmlns:xlink="http://www.w3.org/1999/xlink">
    <!-- Generator: Sketch 52.6 (67491) - http://www.bohemiancoding.com/sketch -->
    <title>Group 3</title>
    <desc>Created with Sketch.</desc>
    <g id="Page-1" stroke="none" stroke-width="1" fill="none" fill-rule="evenodd">
        <g id="Group-3" fill="#7471FF">
            <g id="Rectangle-30" transform="translate(156.000000, 184.000000)">
                <rect id="Rectangle" x="13.4637461" y="10.4921796" width="489.185737" height="68.475304" rx="2.16694"></rect>
            </g>
            <g id="Rectangle-31" transform="translate(156.000000, 316.000000)">
                <rect id="Rectangle" x="13.4912119" y="5.2460898" width="280.105184" height="68.475304" rx="2.16694"></rect>
            </g>
            <g id="Rectangle-32" transform="translate(156.000000, 448.000000)">
                <rect id="Rectangle" x="13.4637461" y="0" width="489.185737" height="68.475304" rx="2.16694"></rect>
            </g>
            <g id="Rectangle-33" transform="translate(465.000000, 316.000000)">
                <rect id="Rectangle" x="5.4400451" y="5.2460898" width="139.550775" height="68.475304" rx="2.16694"></rect>
            </g>
            <g id="Vector" fill-rule="nonzero">
                <path d="M1029.96473,295.595502 L850.42025,55.4504018 C826.767568,23.8246276 778.81675,0 739.037386,0 L84.289425,0 C37.8442909,0 0,37.1075413 0,82.6484853 L0,629.35104 C0,674.892142 37.8442909,712 84.289425,712 L739.037386,712 C779.031364,712 826.982182,688.174898 850.42025,656.54944 L1029.96473,416.404498 C1055.33755,382.67152 1055.33755,329.540498 1029.96473,295.595502 Z M983.090205,383.092391 L803.544114,623.237333 C791.073932,640.103822 760.109864,655.285244 738.822773,655.285244 L84.289425,655.285244 C69.8828795,655.285244 58.0565386,643.689138 58.0565386,629.561476 L58.0565386,82.6484853 C58.0565386,68.5224053 69.8828795,56.9262987 84.289425,56.9262987 L739.037386,56.9262987 C760.324477,56.9262987 791.073932,72.3175236 803.760341,88.9735769 L983.304818,329.118044 C993.625636,343.244124 993.625636,368.966311 983.090205,383.092391 Z" id="Shape"></path>
            </g>
        </g>
    </g>
</svg>