<svg width="23" height="23" viewBox="0 0 23 23" fill="none" xmlns="http://www.w3.org/2000/svg">
<path d="M3.71829 14.0465C2.2841 14.0515 1.10165 12.8928 1.07609 11.4593C1.06372 10.7321 1.35016 10.0739 1.82294 9.60113C2.28338 9.14069 2.9191 8.85648 3.62663 8.8539L8.83706 8.8362L8.85523 3.6253C8.85735 2.91824 9.14203 2.28204 9.60199 1.82208C10.0753 1.34882 10.7334 1.06238 11.4602 1.07523C12.8941 1.10031 14.0528 2.28371 14.0478 3.71695L14.0303 8.81838L19.1317 8.80085C20.5654 8.79629 21.7483 9.95453 21.7734 11.3885C21.7995 12.8224 20.6571 13.9889 19.2238 13.9939L14.0125 14.0116L13.9952 19.2225C13.9902 20.6567 12.8237 21.7981 11.3893 21.7726C9.95586 21.747 8.79715 20.5646 8.80219 19.1304L8.81924 14.0294L3.71829 14.0465Z" fill="white"/>
</svg>
