<?xml version="1.0" encoding="UTF-8"?>
<svg width="50px" height="50px" viewBox="0 0 50 50" version="1.1" xmlns="http://www.w3.org/2000/svg" xmlns:xlink="http://www.w3.org/1999/xlink">
    <!-- Generator: Sketch 52.6 (67491) - http://www.bohemiancoding.com/sketch -->
    <title>Group</title>
    <desc>Created with Sketch.</desc>
    <g id="Page-1" stroke="none" stroke-width="1" fill="none" fill-rule="evenodd">
        <g id="Group" transform="translate(-10.000000, -10.000000)">
            <g id="Ellipse" fill="#7471FF">
                <ellipse id="Oval" transform="translate(35.002000, 35.001800) rotate(45.000000) translate(-35.002000, -35.001800) " cx="35.002" cy="35.0018" rx="25" ry="24.5"></ellipse>
            </g>
            <g id="Vector-1" transform="translate(29.000000, 43.000000)" fill="#FFFFFF">
                <path d="M1.30656,1.63656 L10.5696,1.63656 C10.9737,1.63656 11.297,1.31325 11.297,0.909102 C11.297,0.504957 10.9737,0.181641 10.5696,0.181641 L1.30656,0.181641 C0.902418,0.181641 0.579102,0.504957 0.579102,0.909102 C0.579102,1.31325 0.907806,1.63656 1.30656,1.63656 Z" id="Path"></path>
            </g>
            <g id="Vector-2" transform="translate(29.000000, 40.000000)" fill="#FFFFFF">
                <path d="M10.6287,0.15625 L1.36027,0.15625 C0.956128,0.15625 0.632812,0.479566 0.632812,0.883711 C0.632812,1.28786 0.956128,1.61117 1.36027,1.61117 L10.6233,1.61117 C11.0274,1.61117 11.3507,1.28786 11.3507,0.883711 C11.3507,0.479566 11.0274,0.15625 10.6287,0.15625 Z" id="Path"></path>
            </g>
            <g id="Vector" transform="translate(22.000000, 22.000000)" fill="#FFFFFF" fill-rule="nonzero">
                <path d="M21.5146,5.32933 L20.8464,5.32933 L20.8464,3.84207 C20.8464,1.72435 19.122,0 17.0043,0 L8.93759,0 C6.81987,0 5.09552,1.72435 5.09552,3.84207 L5.09552,5.32933 L4.4866,5.32933 C2.36888,5.32933 0.644531,7.05368 0.644531,9.1714 L0.644531,15.3683 C0.644531,17.486 2.36888,19.2104 4.4866,19.2104 L5.09013,19.2104 L5.09013,24.0817 C5.09013,25.1378 5.9523,26 7.00847,26 L18.9227,26 C19.9788,26 20.841,25.1378 20.841,24.0817 L20.841,19.2104 L21.5146,19.2104 C23.6323,19.2104 25.3567,17.486 25.3567,15.3683 L25.3567,9.1714 C25.3567,7.05368 23.6323,5.32933 21.5146,5.32933 Z M6.54505,3.84207 C6.54505,2.52725 7.61738,1.45492 8.9322,1.45492 L16.9935,1.45492 C18.3084,1.45492 19.3807,2.52725 19.3807,3.84207 L19.3807,5.32933 L6.54505,5.32933 L6.54505,3.84207 Z M19.3861,24.0924 C19.3861,24.3457 19.1759,24.5559 18.9227,24.5559 L7.00847,24.5559 C6.75521,24.5559 6.54505,24.3457 6.54505,24.0924 L6.54505,16.058 L19.3861,16.058 L19.3861,24.0924 Z M23.9017,15.3737 C23.9017,16.6885 22.8294,17.7608 21.5146,17.7608 L20.8464,17.7608 L20.8464,16.058 L21.8056,16.058 C22.2097,16.058 22.533,15.7347 22.533,15.3306 C22.533,14.9264 22.2097,14.6031 21.8056,14.6031 L4.02318,14.6031 C3.61904,14.6031 3.29572,14.9264 3.29572,15.3306 C3.29572,15.7347 3.61904,16.058 4.02318,16.058 L5.09552,16.058 L5.09552,17.7608 L4.4866,17.7608 C3.17179,17.7608 2.09945,16.6885 2.09945,15.3737 L2.09945,9.17679 C2.09945,7.86197 3.17179,6.78964 4.4866,6.78964 L21.5146,6.78964 C22.8294,6.78964 23.9017,7.86197 23.9017,9.17679 L23.9017,15.3737 Z" id="Shape"></path>
            </g>
        </g>
    </g>
</svg>