<svg width="69" height="66" viewBox="0 0 69 66" fill="none" xmlns="http://www.w3.org/2000/svg">
<path d="M59.7133 15.0394C60.8241 14.063 60.9317 12.3701 59.9563 11.2607C59.4805 10.7194 58.984 10.1888 58.4634 9.67242V9.67119L58.461 9.66978V9.66715C52.2258 3.43377 43.9363 0 35.1189 0C27.2007 0 19.7112 2.77746 13.7506 7.85946L9.21507 3.32529C8.53785 2.64807 7.5526 2.38664 6.62959 2.63242C5.70412 2.87961 4.98277 3.60114 4.73681 4.5252L0.091884 21.8623C-0.156713 22.7865 0.107355 23.7719 0.784404 24.4478C1.29127 24.9574 1.97623 25.2321 2.67719 25.2321C2.90697 25.2321 3.13974 25.202 3.36971 25.1405L20.707 20.495C21.6294 20.2482 22.351 19.5265 22.5994 18.6024C22.8476 17.6782 22.5836 16.6927 21.9067 16.0169L17.5462 11.6552C22.4844 7.5757 28.6302 5.35362 35.1187 5.35362C42.5065 5.35362 49.4519 8.23183 54.6781 13.4562V13.4576C54.6807 13.4576 54.6807 13.4589 54.6807 13.4589C55.1167 13.8943 55.5328 14.3413 55.9356 14.7961C56.4638 15.3986 57.2034 15.7057 57.946 15.7057C58.5731 15.7059 59.2061 15.4863 59.7133 15.0394Z" fill="#7471FF"/>
<path d="M27.7627 59.6866C26.5682 59.3571 25.3843 58.944 24.2466 58.4594C22.8874 57.8817 21.3134 58.513 20.7332 59.8721C20.1532 61.2328 20.7856 62.8055 22.148 63.3846C23.5047 63.9635 24.9163 64.4565 26.3434 64.8486C26.5814 64.9138 26.8189 64.9451 27.0543 64.9451C28.2282 64.9451 29.3077 64.1648 29.6347 62.9769C30.0268 61.5518 29.1873 60.0774 27.7627 59.6866Z" fill="#7471FF"/>
<path d="M40.0701 60.2331C38.8521 60.4526 37.6077 60.5939 36.3714 60.6484C34.8944 60.714 33.7518 61.9649 33.8174 63.442C33.8801 64.8784 35.064 65.9999 36.4888 65.9999C36.5282 65.9999 36.5699 65.9987 36.6094 65.9971C38.0864 65.9305 39.5711 65.7635 41.0246 65.5006C42.4805 65.2365 43.4455 63.8445 43.1814 62.3898C42.9198 60.935 41.5184 59.964 40.0701 60.2331Z" fill="#7471FF"/>
<path d="M60.5522 22.118C61.0387 23.2541 61.4515 24.4356 61.7838 25.6316C62.1104 26.8184 63.1876 27.5961 64.3614 27.5961C64.5968 27.5961 64.8369 27.5647 65.0751 27.4994C66.4999 27.106 67.3366 25.6316 66.9442 24.2067C66.5497 22.7808 66.0555 21.3691 65.4755 20.0124C64.8925 18.6532 63.3209 18.023 61.9621 18.6032C60.602 19.1852 59.9719 20.759 60.5522 22.118Z" fill="#7471FF"/>
<path d="M51.3898 55.3916C50.3857 56.1235 49.3271 56.7903 48.2424 57.3758C46.9403 58.0774 46.454 59.701 47.1547 61.0029C47.6383 61.8996 48.5613 62.4094 49.5156 62.4094C49.9442 62.4094 50.378 62.306 50.783 62.0891C52.0798 61.3886 53.345 60.5912 54.5447 59.7181C55.7392 58.8462 56.0008 57.1722 55.1301 55.9775C54.2597 54.7838 52.584 54.5197 51.3898 55.3916Z" fill="#7471FF"/>
<path d="M63.1198 45.0226C61.8121 44.3219 60.1941 44.8109 59.4938 46.1126C58.9078 47.2001 58.2414 48.2601 57.5147 49.2614C56.6443 50.4574 56.9083 52.1316 58.103 53.0009C58.5789 53.3476 59.1301 53.5133 59.6767 53.5133C60.5028 53.5133 61.3186 53.1304 61.8441 52.4105C62.7142 51.2143 63.5092 49.9479 64.2096 48.6488C64.9076 47.3454 64.4215 45.7232 63.1198 45.0226Z" fill="#7471FF"/>
<path d="M65.5452 31.6815C65.506 31.6801 65.4666 31.6787 65.4248 31.6787C64.003 31.6787 62.8188 32.8016 62.7532 34.2382C62.6983 35.4797 62.5598 36.7252 62.34 37.9399C62.0791 39.3958 63.0461 40.7866 64.5023 41.0496C64.6614 41.0781 64.8211 41.0925 64.9779 41.0925C66.2485 41.0925 67.3777 40.1843 67.6103 38.8889C67.8717 37.4395 68.0365 35.955 68.1021 34.4753C68.1676 32.9975 67.0226 31.7469 65.5452 31.6815Z" fill="#7471FF"/>
<path d="M15.5599 52.5761C14.514 51.5307 12.8202 51.5307 11.7745 52.5761C10.7286 53.6204 10.7286 55.3159 11.7745 56.3615C12.2918 56.8789 12.8253 57.377 13.3665 57.8527C13.8737 58.2998 14.5036 58.5181 15.1311 58.5181C15.8758 58.5181 16.6158 58.2108 17.144 57.608C18.1192 56.4974 18.0093 54.8059 16.8982 53.8294C16.4432 53.4298 15.9963 53.0116 15.5599 52.5761Z" fill="#7471FF"/>
</svg>
