<?xml version="1.0" encoding="UTF-8"?>
<svg width="56px" height="56px" viewBox="0 0 56 56" version="1.1" xmlns="http://www.w3.org/2000/svg" xmlns:xlink="http://www.w3.org/1999/xlink">
    <!-- Generator: Sketch 52.6 (67491) - http://www.bohemiancoding.com/sketch -->
    <title>Group 5</title>
    <desc>Created with Sketch.</desc>
    <g id="Page-1" stroke="none" stroke-width="1" fill="none" fill-rule="evenodd">
        <g id="Group-5" fill="#7471FF" stroke="#FFFFFF" stroke-width="0.3">
            <g id="Vector-1" transform="translate(5.000000, 14.000000)">
                <path d="M2.13488,0.421484 L24.9138,0.421484 C25.7295,0.421484 26.3909,1.08282 26.3909,1.89855 C26.3909,2.71428 25.7295,3.37562 24.9138,3.37562 L2.13488,3.37562 C1.31915,3.37562 0.657813,2.71428 0.657813,1.89855 C0.657813,1.08282 1.31915,0.421484 2.13488,0.421484 Z" id="Path"></path>
            </g>
            <g id="Vector-2" transform="translate(5.000000, 21.000000)">
                <path d="M2.13488,0.929297 L18.4055,0.929297 C19.2213,0.929297 19.8826,1.59063 19.8826,2.40636 C19.8826,3.2221 19.2213,3.88343 18.4055,3.88343 L2.13488,3.88343 C1.31915,3.88343 0.657813,3.2221 0.657813,2.40636 C0.657813,1.59063 1.31915,0.929297 2.13488,0.929297 Z" id="Path"></path>
            </g>
            <g id="Vector-3" transform="translate(5.000000, 28.000000)">
                <path d="M2.13488,0.437109 L18.4055,0.437109 C19.2213,0.437109 19.8826,1.09844 19.8826,1.91418 C19.8826,2.72991 19.2213,3.39124 18.4055,3.39124 L2.13488,3.39124 C1.31915,3.39124 0.657813,2.72991 0.657813,1.91418 C0.657813,1.09844 1.31915,0.437109 2.13488,0.437109 Z" id="Path"></path>
            </g>
            <g id="Vector-4" transform="translate(5.000000, 35.000000)">
                <path d="M2.13488,0.944922 L18.4055,0.944922 C19.2213,0.944922 19.8826,1.60626 19.8826,2.42199 C19.8826,3.23772 19.2213,3.89905 18.4055,3.89905 L2.13488,3.89905 C1.31915,3.89905 0.657813,3.23772 0.657813,2.42199 C0.657813,1.60626 1.31915,0.944922 2.13488,0.944922 Z" id="Path"></path>
            </g>
            <g id="Vector-5" transform="translate(21.000000, 45.000000)">
                <path d="M2.1505,0.925391 L11.9129,0.925391 C12.7286,0.925391 13.39,1.58673 13.39,2.40246 C13.39,3.21819 12.7286,3.87952 11.9129,3.87952 L2.1505,3.87952 C1.33477,3.87952 0.673438,3.21819 0.673438,2.40246 C0.673438,1.58673 1.33477,0.925391 2.1505,0.925391 Z" id="Path"></path>
            </g>
            <g id="Vector" fill-rule="nonzero">
                <path d="M42.1537,22.3773 L42.1537,22.7396 L42.4098,22.4833 L47.3049,17.5841 C49.1501,15.7391 52.1518,15.739 53.9964,17.5837 L54.1024,17.4776 L53.9964,17.5837 C55.8458,19.4329 55.8454,22.4256 53.9963,24.2747 L53.9962,24.2747 L42.1976,36.0833 L42.1537,36.1272 L42.1537,36.1893 L42.1537,50.656 C42.1537,53.2646 40.0312,55.3872 37.4225,55.3872 L4.8812,55.3872 C2.27255,55.3872 0.15,53.2646 0.15,50.656 L0.15,4.8812 C0.15,2.27255 2.27255,0.15 4.8812,0.15 L32.8205,0.15 C34.0846,0.15 35.2722,0.641847 36.166,1.53571 L36.2721,1.42965 L36.166,1.53571 L40.7679,6.13781 L40.874,6.03175 L40.7679,6.13782 C41.6618,7.03159 42.1537,8.21916 42.1537,9.48319 L42.1537,22.3773 Z M32.5414,3.10413 L32.3914,3.10413 L32.3914,3.25413 L32.3914,9.7624 L32.3914,9.9124 L32.5414,9.9124 L39.0497,9.9124 L39.1997,9.9124 L39.1997,9.7624 C39.1997,9.7401 39.1999,9.71657 39.2001,9.6919 C39.203,9.33955 39.2078,8.75543 38.6791,8.22669 L38.5731,8.33275 L38.6791,8.22668 L34.0771,3.62458 L33.9711,3.73065 L34.0771,3.62457 C33.5426,3.09017 32.9421,3.09875 32.6179,3.10337 C32.5904,3.10377 32.5648,3.10413 32.5414,3.10413 Z M29.4372,3.25413 L29.4372,3.10413 L29.2872,3.10413 L4.8812,3.10413 C3.90119,3.10413 3.10413,3.90119 3.10413,4.8812 L3.10413,50.656 C3.10413,51.636 3.90119,52.4331 4.8812,52.4331 L37.4225,52.4331 C38.4026,52.4331 39.1996,51.636 39.1996,50.656 L39.1996,39.4444 L39.1996,39.0823 L38.9435,39.3384 L38.7461,39.5358 C38.584,39.698 38.3863,39.8202 38.1688,39.8926 L31.2657,42.1936 L31.3131,42.3359 L31.2656,42.1936 C30.7357,42.3704 30.1503,42.2329 29.7541,41.8368 L29.6481,41.9428 L29.7541,41.8368 C29.3585,41.4412 29.2203,40.856 29.3973,40.3252 L31.6984,33.4221 L31.5561,33.3747 L31.6984,33.4221 C31.7708,33.2047 31.8931,33.0069 32.0552,32.8448 L34.355,30.545 L34.3552,30.5448 L34.3553,30.5447 L34.356,30.5439 L34.3587,30.5413 L34.369,30.531 L34.4091,30.4908 L34.5615,30.3383 L35.1054,29.794 L36.7555,28.1424 L38.4057,26.4909 L38.9494,25.9467 L39.1018,25.7942 L39.1419,25.754 L39.1522,25.7437 L39.1548,25.7411 L39.1555,25.7404 L39.1556,25.7403 L39.0496,25.6342 L39.1557,25.7402 L39.1996,25.6963 L39.1996,25.6342 L39.1996,13.0165 L39.1996,12.8665 L39.0496,12.8665 L30.9143,12.8665 C30.0985,12.8665 29.4372,12.2052 29.4372,11.3895 L29.4372,3.25413 Z M35.5067,33.7832 L35.4006,33.6772 L35.2946,33.7832 L34.4156,34.6621 L34.3906,34.6871 L34.3794,34.7207 L33.2289,38.1722 L33.1341,38.4568 L33.4187,38.362 L36.8701,37.2115 L36.9037,37.2003 L36.9287,37.1753 L37.8077,36.2964 L37.9137,36.1903 L37.8077,36.0842 L35.5067,33.7832 Z M39.8961,33.9948 L40.0022,34.1009 L40.1083,33.9948 L47.9296,26.1668 L48.0356,26.0608 L47.9296,25.9548 L45.6286,23.6538 L45.5224,23.5477 L45.4164,23.6538 L37.5951,31.4817 L37.4891,31.5878 L37.5951,31.6938 L39.8961,33.9948 Z M50.0175,23.8649 L50.1237,23.971 L50.2297,23.8649 L51.907,22.1862 C51.907,22.1862 51.907,22.1862 51.907,22.1862 C52.604,21.4891 52.6002,20.3655 51.9077,19.6726 L51.9076,19.6726 C51.2147,18.9796 50.0877,18.9795 49.3944,19.6725 L49.3943,19.6726 L47.7165,21.3518 L47.6105,21.4579 L47.7166,21.5639 L50.0175,23.8649 Z" id="Shape"></path>
            </g>
        </g>
    </g>
</svg>