<svg width="66" height="66" viewBox="0 0 66 66" fill="none" xmlns="http://www.w3.org/2000/svg">
<path d="M56.3345 9.66539C50.1016 3.43264 41.8146 0 33 0C24.1853 0 15.8981 3.43264 9.66539 9.66539C3.43252 15.8983 0 24.1854 0 33C0 41.8146 3.43252 50.1016 9.66539 56.3345C15.8983 62.5674 24.1853 66 33 66C41.8146 66 50.1016 62.5674 56.3345 56.3345C62.5674 50.1016 66 41.8146 66 33C66 24.1854 62.5674 15.8984 56.3345 9.66539ZM33 62.1328C16.9361 62.1328 3.86719 49.0639 3.86719 33C3.86719 16.9361 16.9361 3.86719 33 3.86719C49.0639 3.86719 62.1328 16.9361 62.1328 33C62.1328 49.0639 49.0639 62.1328 33 62.1328Z" fill="#7471FF"/>
<path d="M48.7662 22.4099C48.0112 21.655 46.7868 21.655 46.0318 22.41L28.957 39.4848L19.9688 30.4966C19.2138 29.7416 17.9895 29.7416 17.2343 30.4966C16.4792 31.2516 16.4792 32.4759 17.2343 33.231L27.5897 43.5865C27.9673 43.964 28.4622 44.1528 28.9569 44.1528C29.4517 44.1528 29.9467 43.9639 30.3241 43.5865L48.7662 25.1444C49.5213 24.3894 49.5213 23.165 48.7662 22.4099Z" fill="#7471FF"/>
</svg>
