<?xml version="1.0" encoding="UTF-8"?>
<svg width="653px" height="461px" viewBox="0 0 653 461" version="1.1" xmlns="http://www.w3.org/2000/svg" xmlns:xlink="http://www.w3.org/1999/xlink">
    <!-- Generator: Sketch 52.6 (67491) - http://www.bohemiancoding.com/sketch -->
    <title>Group</title>
    <desc>Created with Sketch.</desc>
    <g id="Page-1" stroke="none" stroke-width="1" fill="none" fill-rule="evenodd">
        <g id="Group" transform="translate(10.000000, 8.000000)" stroke="#7471FF">
            <g id="Ellipse-4" transform="translate(343.000000, 122.000000)" fill="#FFFFFF" stroke-width="16">
                <circle id="Oval" cx="101" cy="101" r="101"></circle>
            </g>
            <g id="Vector" stroke-width="15">
                <path d="M68.1096715,271.417889 L77.8725229,282.686165 L82.9999748,288.454826 L87.8037907,282.980787 L97.3378078,272.116593 L102.09943,266.691657 L106.860154,272.116593 L116.394171,282.980787 L121.167464,288.420045 L126.199306,282.686165 L136.118455,271.383107 L140.880077,265.958171 L145.640801,271.383107 L155.016816,282.067253 L155.049134,282.103058 L159.1177,286.677886 L200.728029,227.671607 C200.729824,227.670584 200.730722,227.668538 200.73162,227.667515 C226.170029,191.439214 259.611806,143.911948 275.12209,121.886892 L275.126578,121.880754 C304.894796,79.7025172 317.78547,64.224008 336.011422,50.3226482 L336.016808,50.3184539 L336.022195,50.3142597 C367.62001,26.3151332 401.214403,14.5414981 438.437468,14.5414981 L438.451832,14.5414981 L438.466196,14.5416004 C469.473297,14.6901391 495.180132,21.4699279 522.347592,37.101477 C597.762385,80.441221 637.227111,177.634936 617.422031,271.36367 L617.421133,271.368785 C600.382893,351.76791 541.641857,413.849308 469.584617,427.83261 L469.563969,427.836702 L469.544219,427.840794 C452.542786,431.017189 425.614126,431.017189 408.618977,427.840794 L408.599227,427.836702 L408.579476,427.833633 C369.749454,420.305422 332.172678,397.326936 305.347258,364.652516 L305.341872,364.645355 L305.336485,364.639217 C280.429539,334.155026 263.781816,296.111935 258.090134,255.868384 L258.088338,255.84997 L258.085645,255.831556 C256.930251,247.401064 256.288366,234.844839 256.176148,222.887065 C256.126773,217.687188 256.176148,212.445368 256.342231,207.58001 C255.853859,208.263369 255.353817,208.963097 254.8439,209.677147 C245.495715,222.771467 232.662497,240.903008 218.617328,260.889237 L218.615533,260.891283 C204.500339,280.960374 191.623132,299.256617 182.243527,312.570881 C177.554622,319.228524 173.737424,324.642207 171.077415,328.409893 C169.746962,330.293225 168.703786,331.769405 167.983797,332.785238 C167.6247,333.291619 167.341014,333.690587 167.141715,333.968841 C167.051043,334.096716 166.971144,334.208222 166.906507,334.297222 C164.283306,338.194829 160.294639,337.133984 159.943622,337.038846 C158.965982,336.772867 158.245095,336.314566 158.008989,336.163163 C157.399422,335.772379 156.856288,335.30794 156.516044,335.00718 C155.749373,334.330981 154.813028,333.407218 153.830001,332.398546 C151.821753,330.33926 149.170722,327.46567 146.348222,324.326102 L146.318596,324.293366 L146.290766,324.260631 L140.880077,318.09607 L135.721653,323.973169 L125.928188,335.133008 L122.678363,338.837269 C130.075755,352.367384 138.861953,364.564538 151.235528,378.767784 C180.322359,411.768539 210.450572,430.469888 250.904609,440.591388 C250.909098,440.592411 250.912689,440.593434 250.917177,440.594457 L265.591664,444.188234 L353.910596,444.766225 L353.917778,444.766225 C447.147358,445.494597 461.165595,444.719168 481.74004,439.583739 C553.774836,421.226116 610.820038,358.177988 629.138458,276.788606 C643.011261,214.651965 631.963651,147.119033 599.131441,94.0131768 L599.126952,94.0062204 L599.122464,93.9992641 C587.675359,75.3973503 565.915895,51.4300389 549.149671,38.6023111 C520.287274,16.8183753 493.082109,5.51224837 458.694113,1.15274005 C455.775554,0.804175387 443.519584,0.500601992 425.902301,0.298929004 C408.499577,0.0997112008 386.374733,0 364.214876,0 C342.055917,0 319.881696,0.0997112008 302.382017,0.298929004 C284.692914,0.500284863 272.260089,0.802835265 269.118891,1.15698547 C237.844262,4.93323391 207.091222,17.8017792 178.953303,39.174983 L178.94253,39.1832693 L178.931757,39.1915555 C157.182169,55.572959 143.580484,72.8466177 66.0814934,185.900726 L66.0770944,185.906864 L0,282.085667 L3.02950126,285.664099 L5.40456676,288.417999 L10.2357638,282.988971 L10.2688007,282.95112 L19.7699605,272.124777 L24.5309541,266.698818 L29.2919478,272.124777 L38.8228228,282.984879 L38.8261445,282.988971 L43.6025793,288.424137 L48.6381024,282.686165 L58.5573404,271.383107 L63.3488573,265.922366 L68.1096715,271.417889 Z" id="Path"></path>
            </g>
        </g>
    </g>
</svg>