<?xml version="1.0" encoding="UTF-8"?>
<svg width="50px" height="50px" viewBox="0 0 50 50" version="1.1" xmlns="http://www.w3.org/2000/svg" xmlns:xlink="http://www.w3.org/1999/xlink">
    <!-- Generator: Sketch 52.6 (67491) - http://www.bohemiancoding.com/sketch -->
    <title>Group</title>
    <desc>Created with Sketch.</desc>
    <g id="Page-1" stroke="none" stroke-width="1" fill="none" fill-rule="evenodd">
        <g id="Group" transform="translate(-10.000000, -10.000000)">
            <g id="Ellipse" fill="#7471FF">
                <ellipse id="Oval" transform="translate(35.002000, 35.001800) rotate(45.000000) translate(-35.002000, -35.001800) " cx="35.002" cy="35.0018" rx="25" ry="24.5"></ellipse>
            </g>
            <g id="Vector-1" transform="translate(29.000000, 20.000000)" fill="#FFFFFF" stroke="#FFFFFF" stroke-width="2">
                <path d="M2.11995,6.23426 L5.71509,2.63911 L5.71509,18.3192 C5.71509,18.7486 6.05858,19.0921 6.48794,19.0921 C6.91729,19.0921 7.26078,18.7486 7.26078,18.3192 L7.26078,2.63911 L10.8559,6.23426 C11.0048,6.3831 11.2051,6.46325 11.3998,6.46325 C11.6001,6.46325 11.7948,6.38882 11.9436,6.23426 C12.247,5.93084 12.247,5.44424 11.9436,5.14083 L7.03179,0.22899 C6.88867,0.08587 6.6883,0 6.48794,0 C6.28184,0 6.0872,0.08015 5.94408,0.22899 L1.03225,5.14083 C0.72883,5.44424 0.72883,5.93084 1.03225,6.23426 C1.32993,6.53194 1.82226,6.53194 2.11995,6.23426 Z" id="Path"></path>
            </g>
            <g id="Vector" transform="translate(22.000000, 33.000000)" fill="#FFFFFF" stroke="#FFFFFF" stroke-width="2">
                <path d="M26.2022,0.18871 C25.7728,0.18871 25.4294,0.5322 25.4294,0.96156 L25.4294,7.99155 C25.4294,9.9036 23.8722,11.455 21.9659,11.455 L5.00916,11.455 C3.09709,11.455 1.54568,9.8979 1.54568,7.99155 L1.54568,0.84706 C1.54568,0.4177 1.2022,0.07422 0.77284,0.07422 C0.34349,0.07422 0,0.4177 0,0.84706 L0,7.99155 C0,10.7566 2.24983,13.0007 5.00916,13.0007 L21.9659,13.0007 C24.7309,13.0007 26.975,10.7509 26.975,7.99155 L26.975,0.96156 C26.975,0.53792 26.6316,0.18871 26.2022,0.18871 Z" id="Path"></path>
            </g>
        </g>
    </g>
</svg>