<svg width="47" height="44" viewBox="0 0 47 44" fill="none" xmlns="http://www.w3.org/2000/svg">
<path d="M44.7107 21.3321C43.9945 21.3321 43.4215 21.9051 43.4215 22.6214V34.3489C43.4215 37.5386 40.8239 40.1267 37.6437 40.1267H9.35632C6.1666 40.1267 3.57852 37.5291 3.57852 34.3489V22.4304C3.57852 21.7141 3.00552 21.1411 2.28926 21.1411C1.57301 21.1411 1 21.7141 1 22.4304V34.3489C1 38.9616 4.75318 42.7052 9.35632 42.7052H37.6437C42.2564 42.7052 46 38.952 46 34.3489V22.6214C46 21.9147 45.427 21.3321 44.7107 21.3321Z" fill="#7471FF" stroke="#7471FF" stroke-width="2"/>
<path d="M16.2137 11.4L22.2111 5.40259V31.5603C22.2111 32.2765 22.7841 32.8495 23.5004 32.8495C24.2166 32.8495 24.7896 32.2765 24.7896 31.5603V5.40259L30.7871 11.4C31.0354 11.6483 31.3696 11.782 31.6943 11.782C32.0286 11.782 32.3533 11.6579 32.6016 11.4C33.1078 10.8939 33.1078 10.0821 32.6016 9.57598L24.4076 1.382C24.1689 1.14325 23.8346 1 23.5004 1C23.1566 1 22.8319 1.1337 22.5931 1.382L14.3991 9.57598C13.893 10.0821 13.893 10.8939 14.3991 11.4C14.8958 11.8966 15.7171 11.8966 16.2137 11.4Z" fill="#7471FF" stroke="#7471FF" stroke-width="2"/>
</svg>
