<svg width="14" height="14" viewBox="0 0 14 14" fill="none" xmlns="http://www.w3.org/2000/svg">
<path d="M13.8707 6.75732L13.8707 6.75733C13.9764 6.90189 13.9764 7.09831 13.8707 7.24303C13.8093 7.32686 13.0358 8.3705 11.8039 9.39272C10.5711 10.4157 8.88578 11.4117 6.99993 11.4117C5.11409 11.4117 3.42876 10.4157 2.19591 9.39271C0.963949 8.37048 0.190463 7.3268 0.12922 7.24293C0.0235979 7.09819 0.0235934 6.9019 0.129207 6.75715C0.190463 6.67334 0.96395 5.62971 2.19591 4.60749C3.42876 3.58454 5.11409 2.58857 6.99993 2.58857C8.88578 2.58857 10.5711 3.58454 11.8039 4.60751C13.0358 5.62974 13.8093 6.67342 13.8707 6.75732ZM1.01084 6.96803L0.984682 6.99983L1.01088 7.03161C1.37162 7.46918 2.1613 8.35725 3.21315 9.13632C4.26433 9.91488 5.58274 10.5886 6.99993 10.5886C8.42011 10.5886 9.73875 9.91524 10.7893 9.1369C11.8406 8.35807 12.6287 7.47014 12.989 7.03219L13.0152 7.0004L12.989 6.96862C12.6281 6.53082 11.8384 5.64275 10.7865 4.86374C9.73539 4.08523 8.41705 3.41165 6.99993 3.41165C5.57975 3.41165 4.26111 4.08498 3.21054 4.86331C2.15931 5.64214 1.37113 6.53007 1.01084 6.96803Z" fill="white" stroke="#969696" stroke-width="0.1"/>
<path d="M4.28071 6.99996C4.28071 5.50064 5.50064 4.28071 6.99996 4.28071C8.49927 4.28071 9.7192 5.50064 9.7192 6.99996C9.7192 8.49927 8.49927 9.7192 6.99996 9.7192C5.50064 9.7192 4.28071 8.49927 4.28071 6.99996ZM5.10381 6.99996C5.10381 8.04555 5.95433 8.8961 6.99996 8.8961C8.04558 8.8961 8.8961 8.04555 8.8961 6.99996C8.8961 5.95436 8.04555 5.10381 6.99996 5.10381C5.95436 5.10381 5.10381 5.95436 5.10381 6.99996Z" fill="white" stroke="#969696" stroke-width="0.1"/>
</svg>
