<svg width="33" height="63" viewBox="0 0 33 63" fill="none" xmlns="http://www.w3.org/2000/svg">
<g clip-path="url(#clip0)">
<path d="M28.9067 38.0702L28.9082 38.0707C29.083 38.1353 29.2356 38.2591 29.3339 38.4307L32.7419 44.3788C32.8602 44.5853 32.8826 44.833 32.8032 45.0573L32.8031 45.0573C32.7238 45.2816 32.5505 45.4601 32.3287 45.5462L29.7482 46.548L29.6525 46.5851V46.6878V54.1629C29.6525 54.5072 29.4364 54.8146 29.1124 54.9313L16.8821 59.3364C16.882 59.3364 16.882 59.3364 16.882 59.3364C16.7936 59.3682 16.7012 59.3843 16.6087 59.3847C16.6062 59.3846 16.6022 59.3844 16.5978 59.3844C16.5961 59.3844 16.5945 59.3844 16.5931 59.3845C16.5909 59.3845 16.5891 59.3846 16.5876 59.3847L16.5874 59.3847C16.4663 59.3841 16.3518 59.3564 16.2479 59.308L16.2481 59.3075L16.2354 59.3029L4.09801 54.9313C3.77401 54.8146 3.55799 54.5072 3.55799 54.1629V46.7695V46.6668L3.46228 46.6297L0.671198 45.5462C0.449427 45.4601 0.276203 45.2816 0.196804 45.0573C0.117416 44.833 0.139789 44.5852 0.258071 44.3787L3.66606 38.4307C3.76543 38.2574 3.92021 38.1327 4.09731 38.0687L4.09734 38.0688L4.10205 38.0669C4.10284 38.0666 4.10363 38.0663 4.1044 38.066L16.3284 33.6632C16.3284 33.6632 16.3284 33.6631 16.3284 33.6631C16.5089 33.5982 16.7063 33.5987 16.8863 33.6647L16.8863 33.6647L28.9014 38.0681C28.9029 38.0687 28.9045 38.0693 28.9062 38.07L28.9062 38.07L28.9067 38.0702ZM16.5831 59.385C16.5824 59.3851 16.5833 59.385 16.5845 59.3849L16.5831 59.385ZM4.13668 38.0474C4.13688 38.0473 4.13586 38.0481 4.13466 38.0489L4.13611 38.0479L4.13653 38.0476L4.13663 38.0475L4.13668 38.0474ZM28.8927 38.064C28.8909 38.0631 28.8898 38.0625 28.8896 38.0624L28.89 38.0626L28.8927 38.064ZM16.654 35.3194L16.6028 35.3007L16.5516 35.3191L7.16931 38.6984L6.77867 38.8391L7.16904 38.9806L16.5378 42.3754L16.5893 42.3941L16.6407 42.3752L25.8721 38.9792L26.2555 38.8382L25.8719 38.6976L16.654 35.3194ZM4.8607 39.8816L4.74214 39.8386L4.67944 39.9481L2.23422 44.2157L2.14753 44.367L2.31009 44.4301L12.5205 48.3936L12.6401 48.44L12.7045 48.3291L15.3041 43.8538L15.3942 43.6986L15.2255 43.6374L4.8607 39.8816ZM5.39587 47.3803L5.19159 47.301V47.5201V53.4835V53.5889L5.29076 53.6247L15.5738 57.3283L15.7746 57.4007V57.1872V46.8528V46.2959L15.4949 46.7775L13.7018 49.8644C13.5519 50.1224 13.2793 50.2711 12.9952 50.2711C12.8967 50.2711 12.7968 50.2532 12.6999 50.2156C12.6999 50.2156 12.6999 50.2156 12.6999 50.2156L5.39587 47.3803ZM27.9197 53.6247L28.0189 53.5889V53.4835V47.4384V47.2193L27.8146 47.2986L20.3001 50.2156C19.9188 50.3636 19.4867 50.2068 19.2892 49.8485L17.6896 46.9472L17.4082 47.0196V57.1971V57.4106L17.6091 57.3383L27.9197 53.6247ZM20.3115 48.3193L20.3749 48.4342L20.4972 48.3867L30.6899 44.4301L30.8524 44.367L30.7657 44.2157L28.3226 39.9515L28.2596 39.8416L28.1406 39.8853L17.9297 43.6417L17.7658 43.7019L17.8501 43.8549L20.3115 48.3193Z" fill="white" stroke="#7471FF" stroke-width="0.3"/>
</g>
<g clip-path="url(#clip1)">
<path d="M13.6299 27.8932L15.821 32.2756C16.0445 32.7224 16.4936 33 16.9932 33C17.4928 33 17.9419 32.7224 18.1653 32.2756L20.3566 27.8932C20.5612 27.4839 20.5397 27.0073 20.2992 26.6181C20.0586 26.2289 19.6419 25.9966 19.1844 25.9966L18.5862 25.9966L18.5862 23.293C18.5862 23.1312 18.4551 23 18.2933 23L15.6931 23C15.5313 23 15.4001 23.1311 15.4001 23.293L15.4001 25.9966L14.802 25.9966C14.3445 25.9966 13.9277 26.2289 13.6872 26.6181C13.4467 27.0073 13.4253 27.4839 13.6299 27.8932ZM14.802 26.5825L15.6931 26.5825C15.8549 26.5825 15.9861 26.4514 15.9861 26.2896L15.9861 23.5859L18.0003 23.5859L18.0003 26.2896C18.0003 26.4514 18.1315 26.5825 18.2933 26.5825L19.1844 26.5825C19.4374 26.5825 19.6678 26.711 19.8008 26.9262C19.9337 27.1414 19.9456 27.4049 19.8325 27.6311L17.6413 32.0135C17.5159 32.2644 17.2736 32.4141 16.9932 32.4141C16.7128 32.4141 16.4705 32.2644 16.3451 32.0135L14.1539 27.6311C14.0408 27.4049 14.0527 27.1413 14.1857 26.9262C14.3187 26.711 14.5491 26.5825 14.802 26.5825Z" fill="white" stroke="white" stroke-width="0.5"/>
</g>
<path d="M8.35936 9.30984C8.35172 9.35257 8.34748 9.39616 8.34722 9.43985C8.34604 9.48353 8.34984 9.52705 8.35854 9.56976L8.28364 19.1417C8.27525 19.8057 8.53455 20.4448 9.00271 20.9155C9.2779 21.1952 9.61488 21.4061 9.98646 21.5319C10.2396 21.6158 10.5041 21.6598 10.771 21.6627L23.5634 21.7595C24.9457 21.7671 26.0733 20.6545 26.0841 19.272L26.1762 7.07794C26.1846 6.41393 25.9254 5.77456 25.4572 5.30388C24.9905 4.82998 24.3542 4.56121 23.6891 4.55707L10.8967 4.46028C10.2327 4.45189 9.59329 4.7111 9.12262 5.17926C8.64871 5.64601 8.37995 6.28223 8.37571 6.94764L8.35936 9.30984ZM23.5715 20.2627L10.7791 20.1659C10.2232 20.1597 9.77682 19.7057 9.78045 19.1498L9.85037 10.1999L24.6575 10.314L24.5873 19.2639C24.5789 19.8185 24.1262 20.2634 23.5715 20.2627ZM10.8883 5.957L23.6807 6.05379C23.7879 6.05236 23.8939 6.06967 23.9952 6.1048C24.1456 6.15526 24.2816 6.24187 24.3913 6.35693C24.5794 6.5459 24.6832 6.80291 24.6795 7.06956L24.6656 8.81723L9.85874 8.70314L9.87252 6.95574C9.87264 6.68787 9.98022 6.43132 10.1712 6.24362C10.3623 6.05565 10.6206 5.95264 10.8883 5.957Z" fill="white"/>
<defs>
<clipPath id="clip0">
<rect y="30" width="33" height="33" fill="white"/>
</clipPath>
<clipPath id="clip1">
<rect x="22" y="33" width="10" height="10" transform="rotate(-180 22 33)" fill="white"/>
</clipPath>
</defs>
</svg>
